<mxfile host="app.diagrams.net" modified="2023-08-19T06:49:24.575Z" agent="Mozilla/5.0 (Windows NT 10.0; Win64; x64) AppleWebKit/537.36 (KHTML, like Gecko) Chrome/115.0.0.0 Safari/537.36 Edg/115.0.1901.203" etag="EiXf_SWiRILahqam8P7u" version="21.6.8" type="device">
  <diagram id="YKBjTKGMOBF2p5uhFZQw" name="Statemachine">
    <mxGraphModel dx="1000" dy="698" grid="1" gridSize="10" guides="1" tooltips="1" connect="1" arrows="1" fold="1" page="1" pageScale="1" pageWidth="850" pageHeight="1100" math="0" shadow="0">
      <root>
        <mxCell id="0" />
        <mxCell id="1" parent="0" />
        <mxCell id="twPTelytEAIwxnEzPvE8-1" value="sm" style="shape=umlFrame;whiteSpace=wrap;html=1;rounded=1;shadow=0;comic=0;labelBackgroundColor=none;strokeWidth=1;fontFamily=Verdana;fontSize=12;align=center;" parent="1" vertex="1">
          <mxGeometry x="30" y="30" width="760" height="570" as="geometry" />
        </mxCell>
        <mxCell id="twPTelytEAIwxnEzPvE8-2" value="A" style="rounded=1;whiteSpace=wrap;html=1;arcSize=24;fillColor=#ffffc0;strokeColor=#ff0000;shadow=0;comic=0;labelBackgroundColor=none;fontFamily=Verdana;fontSize=12;fontColor=#000000;align=center;verticalAlign=top;" parent="1" vertex="1">
          <mxGeometry x="160" y="120" width="250" height="440" as="geometry" />
        </mxCell>
        <mxCell id="twPTelytEAIwxnEzPvE8-3" value="B" style="rounded=1;whiteSpace=wrap;html=1;arcSize=24;fillColor=#ffffc0;strokeColor=#ff0000;shadow=0;comic=0;labelBackgroundColor=none;fontFamily=Verdana;fontSize=12;fontColor=#000000;align=center;verticalAlign=top;" parent="1" vertex="1">
          <mxGeometry x="480" y="120" width="200" height="320" as="geometry" />
        </mxCell>
        <mxCell id="twPTelytEAIwxnEzPvE8-8" style="edgeStyle=orthogonalEdgeStyle;rounded=0;orthogonalLoop=1;jettySize=auto;html=1;" parent="1" source="twPTelytEAIwxnEzPvE8-9" target="twPTelytEAIwxnEzPvE8-2" edge="1">
          <mxGeometry relative="1" as="geometry" />
        </mxCell>
        <mxCell id="twPTelytEAIwxnEzPvE8-9" value="" style="ellipse;html=1;shape=startState;fillColor=#000000;strokeColor=#ff0000;rounded=1;shadow=0;comic=0;labelBackgroundColor=none;fontFamily=Verdana;fontSize=12;fontColor=#000000;align=center;direction=south;" parent="1" vertex="1">
          <mxGeometry x="160" y="40" width="30" height="30" as="geometry" />
        </mxCell>
        <mxCell id="3QdsNgIAZtOzLI_fTZXC-1" value="by Stefan Grimm, (C) 2023, licensed under the CC BY-SA 4.0 (internet: https://creativecommons.org/licenses/by-sa/4.0/)" style="text;html=1;strokeColor=none;fillColor=none;align=left;verticalAlign=middle;whiteSpace=wrap;rounded=0;fontSize=9;" parent="1" vertex="1">
          <mxGeometry x="30" y="610" width="500" height="20" as="geometry" />
        </mxCell>
        <mxCell id="_O_Is2bhzpRZIhhrAjC6-1" value="Triggers:&lt;br&gt;B_A&lt;br&gt;B_AA&lt;br&gt;B_AAA&lt;br&gt;AAB_AAA" style="text;html=1;strokeColor=none;fillColor=none;align=left;verticalAlign=bottom;whiteSpace=wrap;rounded=0;" parent="1" vertex="1">
          <mxGeometry x="40" y="480" width="100" height="110" as="geometry" />
        </mxCell>
        <mxCell id="39VMVqUXp_07OLmze4wy-1" value="" style="ellipse;html=1;shape=endState;fillColor=#000000;strokeColor=#ff0000;direction=south;" parent="1" vertex="1">
          <mxGeometry x="565" y="500" width="30" height="30" as="geometry" />
        </mxCell>
        <mxCell id="SZ21oMpPWLER4ntVWx7g-1" style="edgeStyle=orthogonalEdgeStyle;rounded=0;orthogonalLoop=1;jettySize=auto;html=1;entryX=0;entryY=0.5;entryDx=0;entryDy=0;exitX=0.5;exitY=1;exitDx=0;exitDy=0;" parent="1" source="twPTelytEAIwxnEzPvE8-3" target="39VMVqUXp_07OLmze4wy-1" edge="1">
          <mxGeometry relative="1" as="geometry">
            <mxPoint x="310" y="475" as="sourcePoint" />
            <mxPoint x="489" y="300" as="targetPoint" />
          </mxGeometry>
        </mxCell>
        <mxCell id="Y1mLkxfQI3LrEwA4ikC5-1" value="AA" style="rounded=1;whiteSpace=wrap;html=1;arcSize=24;fillColor=#ffffc0;strokeColor=#ff0000;shadow=0;comic=0;labelBackgroundColor=none;fontFamily=Verdana;fontSize=12;fontColor=#000000;align=center;verticalAlign=top;" parent="1" vertex="1">
          <mxGeometry x="180" y="185" width="170" height="285" as="geometry" />
        </mxCell>
        <mxCell id="Y1mLkxfQI3LrEwA4ikC5-2" value="AAA" style="rounded=1;whiteSpace=wrap;html=1;arcSize=24;fillColor=#ffffc0;strokeColor=#ff0000;shadow=0;comic=0;labelBackgroundColor=none;fontFamily=Verdana;fontSize=12;fontColor=#000000;align=center;verticalAlign=top;" parent="1" vertex="1">
          <mxGeometry x="205" y="250" width="90" height="50" as="geometry" />
        </mxCell>
        <mxCell id="Y1mLkxfQI3LrEwA4ikC5-3" value="AAB" style="rounded=1;whiteSpace=wrap;html=1;arcSize=24;fillColor=#ffffc0;strokeColor=#ff0000;shadow=0;comic=0;labelBackgroundColor=none;fontFamily=Verdana;fontSize=12;fontColor=#000000;align=center;verticalAlign=top;" parent="1" vertex="1">
          <mxGeometry x="205" y="370" width="90" height="50" as="geometry" />
        </mxCell>
        <mxCell id="Y1mLkxfQI3LrEwA4ikC5-4" value="" style="ellipse;html=1;shape=startState;fillColor=#000000;strokeColor=#ff0000;rounded=1;shadow=0;comic=0;labelBackgroundColor=none;fontFamily=Verdana;fontSize=12;fontColor=#000000;align=center;direction=south;" parent="1" vertex="1">
          <mxGeometry x="190" y="130" width="30" height="30" as="geometry" />
        </mxCell>
        <mxCell id="Y1mLkxfQI3LrEwA4ikC5-5" style="edgeStyle=orthogonalEdgeStyle;rounded=0;orthogonalLoop=1;jettySize=auto;html=1;exitX=0.5;exitY=0;exitDx=0;exitDy=0;entryX=0.5;entryY=0;entryDx=0;entryDy=0;" parent="1" source="Y1mLkxfQI3LrEwA4ikC5-4" target="Y1mLkxfQI3LrEwA4ikC5-1" edge="1">
          <mxGeometry relative="1" as="geometry">
            <mxPoint x="185" y="80" as="sourcePoint" />
            <mxPoint x="270" y="130" as="targetPoint" />
          </mxGeometry>
        </mxCell>
        <mxCell id="Y1mLkxfQI3LrEwA4ikC5-6" value="" style="ellipse;html=1;shape=startState;fillColor=#000000;strokeColor=#ff0000;rounded=1;shadow=0;comic=0;labelBackgroundColor=none;fontFamily=Verdana;fontSize=12;fontColor=#000000;align=center;direction=south;" parent="1" vertex="1">
          <mxGeometry x="190" y="200" width="30" height="30" as="geometry" />
        </mxCell>
        <mxCell id="Y1mLkxfQI3LrEwA4ikC5-7" style="edgeStyle=orthogonalEdgeStyle;rounded=0;orthogonalLoop=1;jettySize=auto;html=1;exitX=0.5;exitY=0;exitDx=0;exitDy=0;entryX=0.5;entryY=0;entryDx=0;entryDy=0;" parent="1" source="Y1mLkxfQI3LrEwA4ikC5-6" target="Y1mLkxfQI3LrEwA4ikC5-2" edge="1">
          <mxGeometry relative="1" as="geometry">
            <mxPoint x="185" y="80" as="sourcePoint" />
            <mxPoint x="270" y="130" as="targetPoint" />
          </mxGeometry>
        </mxCell>
        <mxCell id="Y1mLkxfQI3LrEwA4ikC5-8" value="" style="ellipse;html=1;shape=endState;fillColor=#000000;strokeColor=#ff0000;direction=south;" parent="1" vertex="1">
          <mxGeometry x="310" y="310" width="30" height="30" as="geometry" />
        </mxCell>
        <mxCell id="Y1mLkxfQI3LrEwA4ikC5-9" style="edgeStyle=orthogonalEdgeStyle;rounded=0;orthogonalLoop=1;jettySize=auto;html=1;exitX=1;exitY=0.5;exitDx=0;exitDy=0;entryX=0;entryY=0.5;entryDx=0;entryDy=0;" parent="1" source="Y1mLkxfQI3LrEwA4ikC5-2" target="Y1mLkxfQI3LrEwA4ikC5-8" edge="1">
          <mxGeometry relative="1" as="geometry">
            <mxPoint x="230" y="225" as="sourcePoint" />
            <mxPoint x="260" y="260" as="targetPoint" />
          </mxGeometry>
        </mxCell>
        <mxCell id="Y1mLkxfQI3LrEwA4ikC5-10" style="edgeStyle=orthogonalEdgeStyle;rounded=0;orthogonalLoop=1;jettySize=auto;html=1;exitX=1;exitY=0.5;exitDx=0;exitDy=0;entryX=1;entryY=0.5;entryDx=0;entryDy=0;" parent="1" source="Y1mLkxfQI3LrEwA4ikC5-3" target="Y1mLkxfQI3LrEwA4ikC5-8" edge="1">
          <mxGeometry relative="1" as="geometry">
            <mxPoint x="305" y="285" as="sourcePoint" />
            <mxPoint x="335" y="310" as="targetPoint" />
          </mxGeometry>
        </mxCell>
        <mxCell id="Y1mLkxfQI3LrEwA4ikC5-14" value="AAB_AAA" style="edgeStyle=orthogonalEdgeStyle;rounded=0;orthogonalLoop=1;jettySize=auto;html=1;exitX=0.25;exitY=1;exitDx=0;exitDy=0;entryX=0.25;entryY=0;entryDx=0;entryDy=0;" parent="1" source="Y1mLkxfQI3LrEwA4ikC5-2" target="Y1mLkxfQI3LrEwA4ikC5-3" edge="1">
          <mxGeometry y="-27" relative="1" as="geometry">
            <mxPoint x="420" y="235" as="sourcePoint" />
            <mxPoint x="490" y="210" as="targetPoint" />
            <mxPoint as="offset" />
          </mxGeometry>
        </mxCell>
        <mxCell id="Y1mLkxfQI3LrEwA4ikC5-19" value="B_AAB" style="edgeStyle=orthogonalEdgeStyle;rounded=0;orthogonalLoop=1;jettySize=auto;html=1;exitX=1;exitY=0.75;exitDx=0;exitDy=0;entryX=0;entryY=0.75;entryDx=0;entryDy=0;" parent="1" source="Y1mLkxfQI3LrEwA4ikC5-3" target="twPTelytEAIwxnEzPvE8-3" edge="1">
          <mxGeometry y="-27" relative="1" as="geometry">
            <mxPoint x="295" y="515" as="sourcePoint" />
            <mxPoint x="233" y="450" as="targetPoint" />
            <mxPoint as="offset" />
          </mxGeometry>
        </mxCell>
        <mxCell id="Y1mLkxfQI3LrEwA4ikC5-20" value="" style="ellipse;html=1;shape=endState;fillColor=#000000;strokeColor=#ff0000;direction=south;" parent="1" vertex="1">
          <mxGeometry x="360" y="470" width="30" height="30" as="geometry" />
        </mxCell>
        <mxCell id="Y1mLkxfQI3LrEwA4ikC5-22" style="rounded=0;orthogonalLoop=1;jettySize=auto;html=1;exitX=0.75;exitY=1;exitDx=0;exitDy=0;entryX=0.5;entryY=1;entryDx=0;entryDy=0;edgeStyle=orthogonalEdgeStyle;" parent="1" source="Y1mLkxfQI3LrEwA4ikC5-1" target="Y1mLkxfQI3LrEwA4ikC5-20" edge="1">
          <mxGeometry relative="1" as="geometry">
            <mxPoint x="305" y="285" as="sourcePoint" />
            <mxPoint x="335" y="320" as="targetPoint" />
            <Array as="points">
              <mxPoint x="308" y="485" />
            </Array>
          </mxGeometry>
        </mxCell>
        <mxCell id="Y1mLkxfQI3LrEwA4ikC5-25" style="edgeStyle=orthogonalEdgeStyle;rounded=0;orthogonalLoop=1;jettySize=auto;html=1;exitX=1;exitY=0.25;exitDx=0;exitDy=0;entryX=0;entryY=0.25;entryDx=0;entryDy=0;" parent="1" source="twPTelytEAIwxnEzPvE8-2" target="twPTelytEAIwxnEzPvE8-3" edge="1">
          <mxGeometry relative="1" as="geometry">
            <mxPoint x="360" y="356" as="sourcePoint" />
            <mxPoint x="375" y="420" as="targetPoint" />
            <Array as="points">
              <mxPoint x="440" y="230" />
              <mxPoint x="440" y="200" />
            </Array>
          </mxGeometry>
        </mxCell>
        <mxCell id="Y1mLkxfQI3LrEwA4ikC5-26" value="B_A" style="edgeLabel;html=1;align=center;verticalAlign=middle;resizable=0;points=[];" parent="Y1mLkxfQI3LrEwA4ikC5-25" vertex="1" connectable="0">
          <mxGeometry x="-0.54" y="3" relative="1" as="geometry">
            <mxPoint x="7" y="-42" as="offset" />
          </mxGeometry>
        </mxCell>
        <mxCell id="Y1mLkxfQI3LrEwA4ikC5-27" style="edgeStyle=orthogonalEdgeStyle;rounded=0;orthogonalLoop=1;jettySize=auto;html=1;exitX=1;exitY=0.5;exitDx=0;exitDy=0;entryX=0;entryY=0.5;entryDx=0;entryDy=0;" parent="1" source="Y1mLkxfQI3LrEwA4ikC5-1" target="twPTelytEAIwxnEzPvE8-3" edge="1">
          <mxGeometry relative="1" as="geometry">
            <mxPoint x="420" y="240" as="sourcePoint" />
            <mxPoint x="490" y="210" as="targetPoint" />
          </mxGeometry>
        </mxCell>
        <mxCell id="Y1mLkxfQI3LrEwA4ikC5-28" value="B_AA" style="edgeLabel;html=1;align=center;verticalAlign=middle;resizable=0;points=[];" parent="Y1mLkxfQI3LrEwA4ikC5-27" vertex="1" connectable="0">
          <mxGeometry x="-0.54" y="3" relative="1" as="geometry">
            <mxPoint x="47" y="-19" as="offset" />
          </mxGeometry>
        </mxCell>
        <mxCell id="Y1mLkxfQI3LrEwA4ikC5-29" value="" style="ellipse;html=1;shape=endState;fillColor=#000000;strokeColor=#ff0000;direction=south;" parent="1" vertex="1">
          <mxGeometry x="450" y="555" width="30" height="30" as="geometry" />
        </mxCell>
        <mxCell id="Y1mLkxfQI3LrEwA4ikC5-30" style="edgeStyle=orthogonalEdgeStyle;rounded=0;orthogonalLoop=1;jettySize=auto;html=1;entryX=0.5;entryY=1;entryDx=0;entryDy=0;exitX=0.75;exitY=1;exitDx=0;exitDy=0;" parent="1" source="twPTelytEAIwxnEzPvE8-2" target="Y1mLkxfQI3LrEwA4ikC5-29" edge="1">
          <mxGeometry relative="1" as="geometry">
            <mxPoint x="590" y="450" as="sourcePoint" />
            <mxPoint x="590" y="510" as="targetPoint" />
            <Array as="points">
              <mxPoint x="348" y="570" />
            </Array>
          </mxGeometry>
        </mxCell>
      </root>
    </mxGraphModel>
  </diagram>
</mxfile>
